<?xml version="1.0" encoding="UTF-8" standalone="no" ?>
<!DOCTYPE svg PUBLIC "-//W3C//DTD SVG 1.1//EN" "http://www.w3.org/Graphics/SVG/1.1/DTD/svg11.dtd">
<svg xmlns="http://www.w3.org/2000/svg" xmlns:xlink="http://www.w3.org/1999/xlink" version="1.1" width="1280" height="1024" viewBox="0 0 1280 1024" xml:space="preserve">
<desc>Created with Fabric.js 5.3.0</desc>
<defs>
</defs>
<g transform="matrix(1 0 0 1 640 512)" id="background-logo"  >
<rect style="stroke: none; stroke-width: 0; stroke-dasharray: none; stroke-linecap: butt; stroke-dashoffset: 0; stroke-linejoin: miter; stroke-miterlimit: 4; fill: rgb(255,255,255); fill-opacity: 0; fill-rule: nonzero; opacity: 1;"  paint-order="stroke"  x="-640" y="-512" rx="0" ry="0" width="1280" height="1024" />
</g>
<g transform="matrix(1.9211538461538462 0 0 1.9211538461538462 640 396.0395203637575)" id="logo-logo"  >
<g style=""  paint-order="stroke"   >
		<g transform="matrix(0.43136531456345417 0 0 0.4313653145634542 0 0)"  >
<linearGradient id="SVGID_6_2_2_934286" gradientUnits="userSpaceOnUse" gradientTransform="matrix(1 0 0 1 0 0)"  x1="168.8018" y1="405.2068" x2="848.0307" y2="627.7129">
<stop offset="0%" style="stop-color:rgb(241,131,162);stop-opacity: 1"/>
<stop offset="27.860000000000003%" style="stop-color:rgb(238,104,142);stop-opacity: 1"/>
<stop offset="56.489999999999995%" style="stop-color:rgb(255,75,139);stop-opacity: 1"/>
<stop offset="79.5%" style="stop-color:rgb(255,29,97);stop-opacity: 1"/>
<stop offset="100%" style="stop-color:rgb(214,23,78);stop-opacity: 1"/>
</linearGradient>
<path style="stroke: none; stroke-width: 1; stroke-dasharray: none; stroke-linecap: butt; stroke-dashoffset: 0; stroke-linejoin: miter; stroke-miterlimit: 4; fill: url(#SVGID_6_2_2_934286); fill-rule: nonzero; opacity: 1;"  paint-order="stroke"  transform=" translate(-500.1, -500.7)" d="M 260 593.2 L 273.7 593.2 L 273.7 607.5 L 260 607.5 L 260 593.2 z M 260.7 371.6 L 247 371.6 L 247 385.8 L 260.7 385.8 L 260.7 371.6 z M 247.6 436.8 L 234 436.8 L 234 450.90000000000003 L 247.6 450.90000000000003 L 247.6 436.8 z M 247.6 502 L 234 502 L 234 516.1 L 247.6 516.1 L 247.6 502 z M 286 620.5 L 299.9 620.5 L 299.9 606.1 L 286 606.1 L 286 620.5 z M 260 424.9 L 273.7 424.9 L 273.7 410.59999999999997 L 260 410.59999999999997 L 260 424.9 z M 169.1 424.7 L 182.29999999999998 424.7 L 182.29999999999998 410.8 L 169.1 410.8 L 169.1 424.7 z M 169.2 489.1 L 156.1 489.1 L 156.1 502.90000000000003 L 169.2 502.90000000000003 L 169.2 489.1 z M 169.1 607.2 L 182.29999999999998 607.2 L 182.29999999999998 593.3000000000001 L 169.1 593.3000000000001 L 169.1 607.2 z M 221.5 476 L 208.1 476 L 208.1 490 L 221.5 490 L 221.5 476 z M 221.1 581.3 L 234.6 581.3 L 234.6 567.1999999999999 L 221.1 567.1999999999999 L 221.1 581.3 z M 221.5 397.7 L 208.1 397.7 L 208.1 411.7 L 221.5 411.7 L 221.5 397.7 z M 221.1 633.4 L 234.6 633.4 L 234.6 619.3 L 221.1 619.3 L 221.1 633.4 z M 195.1 555.1 L 208.4 555.1 L 208.4 541.1 L 195.1 541.1 L 195.1 555.1 z M 313 397.5 L 299 397.5 L 299 412 L 313 412 L 313 397.5 z M 844.1 496 C 844.1 530.9 827.7 563.2 799.1 584.6 C 779.6 599.2 756.8000000000001 606.9 733.2 606.9 C 723 606.9 712.9000000000001 605.4 703.1 602.5 C 702.8000000000001 602.4 702.5 602.3 702.1 602.2 C 680.9 595.6 648 574.1 591 534.1 C 560 557.5 528.4 581.2 512.3 590.6 C 486.4 605.8000000000001 463.9 615.4 443.49999999999994 620.2 C 439.29999999999995 621.2 434.99999999999994 622 430.69999999999993 622.6 L 430.69999999999993 622.6 L 429 623 L 429 623 C 425.1 623.5 421.3 623.8 417.7 624 L 417.7 624 L 416.7 624 C 415.4 624 414.2 624.1 412.9 624.1 C 409.9 624.1 406.9 624 403.9 623.7 L 403 623.6 C 398.9 623.3000000000001 394.8 622.7 390.8 621.9 L 390 621.6999999999999 C 388.7 621.4 387.6 621.1999999999999 386.5 620.9 L 378.2 619 L 379.2 619 C 378.9 618.9 378.59999999999997 618.8 378.3 618.7 L 377 618.3000000000001 L 377 607.7 L 365.3 607.7 L 365.3 613.9000000000001 L 363.90000000000003 613.3000000000001 C 360.3 611.7 356.70000000000005 609.9000000000001 353.3 607.9000000000001 L 350 606 L 350.1 606 C 346.3 603.7 342.70000000000005 601.2 339.1 598.6 L 339.1 607.6 L 324.90000000000003 607.6 L 324.90000000000003 593 L 332.20000000000005 593 C 330.1 591.1 328.00000000000006 589.2 326.00000000000006 587.2 L 326.00000000000006 587.2 L 324.30000000000007 585.5 C 323.1000000000001 584.3 321.9000000000001 583 320.70000000000005 581.6 L 319.20000000000005 579.9 L 324.90000000000003 579.9 L 324.90000000000003 568.4 L 312.90000000000003 568.4 L 312.90000000000003 581.4 L 299.8 581.4 L 299.8 594.4 L 285.90000000000003 594.4 L 285.90000000000003 581.4 L 272.90000000000003 581.4 L 272.90000000000003 568.4 L 260.6 568.4 L 260.6 581.4 L 246.90000000000003 581.4 L 246.90000000000003 567.1999999999999 L 259.90000000000003 567.1999999999999 L 259.90000000000003 555.4 L 246.90000000000003 555.4 L 246.90000000000003 541.1999999999999 L 259.90000000000003 541.1999999999999 L 259.90000000000003 528.1999999999999 L 272.90000000000003 528.1999999999999 L 272.90000000000003 516.4 L 259.90000000000003 516.4 L 259.90000000000003 502.2 L 272.90000000000003 502.2 L 272.90000000000003 477.4 L 261.00000000000006 477.4 L 261.00000000000006 491.79999999999995 L 246.90000000000006 491.79999999999995 L 246.90000000000006 477.29999999999995 L 259.9000000000001 477.29999999999995 L 259.9000000000001 463.19999999999993 L 272.9000000000001 463.19999999999993 L 272.9000000000001 451 L 259.9000000000001 451 L 259.9000000000001 436.7 L 273.6000000000001 436.7 L 273.6000000000001 449.7 L 285.9000000000001 449.7 L 285.9000000000001 436.7 L 298.9000000000001 436.7 L 298.9000000000001 423.7 L 310.7000000000001 423.7 L 312.9000000000001 420.59999999999997 L 312.9000000000001 423.7 L 324.9000000000001 423.7 L 324.9000000000001 412 L 319.80000000000007 412 L 321.30000000000007 410.3 C 322.20000000000005 409.3 323.20000000000005 408.3 324.20000000000005 407.3 L 324.80000000000007 406.7 L 324.80000000000007 397.5 L 335.00000000000006 397.5 L 335.30000000000007 397.3 C 336.00000000000006 396.7 336.70000000000005 396.2 337.4000000000001 395.6 L 337.9000000000001 395.20000000000005 L 337.9000000000001 386 L 324.9000000000001 386 L 324.9000000000001 371.4 L 339.1000000000001 371.4 L 339.1000000000001 384.4 L 352.2000000000001 384.4 L 352.2000000000001 385.5 L 354.6000000000001 384.1 C 357.6000000000001 382.40000000000003 360.7000000000001 380.8 363.9000000000001 379.40000000000003 L 365.30000000000007 378.70000000000005 L 365.30000000000007 384.30000000000007 L 377.00000000000006 384.30000000000007 L 377.00000000000006 374.30000000000007 L 377.70000000000005 374.1000000000001 C 378.70000000000005 373.80000000000007 379.80000000000007 373.4000000000001 381.00000000000006 373.1000000000001 L 379.90000000000003 373.1000000000001 L 389.1 371.00000000000006 C 389.40000000000003 370.90000000000003 389.70000000000005 370.90000000000003 390 370.80000000000007 L 390 370.80000000000007 L 390.8 370.6000000000001 C 394.8 369.80000000000007 399.1 369.1000000000001 403.5 368.7000000000001 L 404.6 368.6000000000001 L 404.6 371.30000000000007 L 416 371.30000000000007 L 416 368 L 417 368 C 421 368 425 368.3 429 368.7 L 429 368.7 L 429.7 368.8 L 429.8 369.3 L 429.90000000000003 368.8 L 430.8 368.90000000000003 C 437.6 369.70000000000005 444.3 371.1 450.7 373.00000000000006 C 477.5 380.90000000000003 519.7 408.40000000000003 588 456.20000000000005 L 589.7 457.40000000000003 C 620.4000000000001 434.20000000000005 640.3000000000001 419.6 651.1 413.20000000000005 C 681.7 395.30000000000007 722.3000000000001 376.40000000000003 765 389.30000000000007 C 797.6 399.20000000000005 824.4 424.00000000000006 836.7 455.9000000000001 C 841.6 468.8 844.1 482.2 844.1 496 z M 286.9 462.8 L 299.09999999999997 462.8 L 299.09999999999997 451.2 L 286.9 451.2 L 286.9 462.8 z M 273.8 475.8 L 286.1 475.8 L 286.1 464.1 L 273.8 464.1 L 273.8 475.8 z M 312 542.4 L 301.1 542.4 L 301.1 555.5 L 287 555.5 L 287 541 L 296 541 C 294.6 537.2 293.3 533.3 292.3 529.4 L 292.3 529.4 L 292.1 528.6999999999999 C 291 524.5999999999999 290.20000000000005 520.4 289.5 516.1999999999999 L 289.3 514.9999999999999 L 299 514.9999999999999 L 299 503.39999999999986 L 287.1 503.39999999999986 L 287.1 503.59999999999985 L 273.8 503.59999999999985 L 273.8 515.0999999999999 L 287.1 515.0999999999999 L 287.1 529.6999999999999 L 273.8 529.6999999999999 L 273.8 542.5999999999999 L 260.7 542.5999999999999 L 260.7 554.3999999999999 L 273.8 554.3999999999999 L 273.8 567.3999999999999 L 286.90000000000003 567.3999999999999 L 286.90000000000003 580.3999999999999 L 299.1 580.3999999999999 L 299.1 567.3999999999999 L 311.8 567.3999999999999 L 311.8 567.3999999999999 L 312.1 567.3999999999999 L 312.1 542.4 z M 312 490.2 L 299.9 490.2 L 299.9 501.8 L 312 501.8 L 312 490.2 z M 325 451.2 L 313 451.2 L 313 462.8 L 325 462.8 L 325 451.2 z M 338 529.4 L 326.1 529.4 L 326.1 540.9 L 338 540.9 L 338 529.4 z M 391.5 410.4 L 403 410.4 L 403 399.2 L 391.5 399.2 L 391.5 410.4 z M 352.3 397.4 L 364 397.4 L 364 386.09999999999997 L 352.3 386.09999999999997 L 352.3 397.4 z M 351 423.5 L 351 412.1 L 339.2 412.1 L 339.2 423.6 L 351 423.5 z M 364 568.6 L 352.3 568.6 L 352.3 580 L 364 580 L 364 568.6 z M 416 594.8 L 404.6 594.8 L 404.6 605.9 L 416 605.9 L 416 594.8 z M 537.6 496.7 C 498.70000000000005 469.59999999999997 451.90000000000003 438 433 432.4 C 432 432.09999999999997 430.9 431.79999999999995 429.7 431.5 L 429.4 431.4 C 425.29999999999995 430.5 421.09999999999997 429.9 416.9 429.9 L 415.9 429.9 C 412 429.9 408.09999999999997 430.29999999999995 404.2 431.09999999999997 L 403.7 431.2 C 399.5 432.09999999999997 395.4 433.3 391.4 435.09999999999997 L 390.7 435.4 C 388.9 436.2 387 437.09999999999997 385.2 438.2 L 384.8 438.4 C 382.7 439.59999999999997 380.6 440.9 378.5 442.4 L 377.6 443.09999999999997 C 377.40000000000003 443.2 377.20000000000005 443.4 377 443.49999999999994 C 373.9 445.79999999999995 371.1 448.29999999999995 368.4 451.09999999999997 L 368.09999999999997 451.4 C 367.29999999999995 452.2 366.49999999999994 453.09999999999997 365.7 454 L 365 454.8 C 362.6 457.7 360.5 460.7 358.6 463.90000000000003 L 358.40000000000003 464.3 C 356.1 468.3 354.20000000000005 472.5 352.90000000000003 476.8 L 352.20000000000005 479.3 C 351.30000000000007 482.7 350.6 486.2 350.20000000000005 489.7 L 350.20000000000005 490.09999999999997 C 350.00000000000006 492.2 349.90000000000003 494.2 349.90000000000003 496.2 C 349.90000000000003 498.2 350.00000000000006 500.2 350.20000000000005 502.2 L 350.30000000000007 502.9 C 350.70000000000005 506.5 351.30000000000007 510.09999999999997 352.30000000000007 513.6 L 352.30000000000007 513.9 L 353.00000000000006 516.1 C 353.50000000000006 517.6 353.90000000000003 518.9 354.40000000000003 520.1 C 355.40000000000003 522.7 356.70000000000005 525.4 358.20000000000005 528.1 L 358.40000000000003 528.5 C 360.40000000000003 532 362.6 535.3 365.20000000000005 538.4 L 365.90000000000003 539.1999999999999 C 366.40000000000003 539.8 366.90000000000003 540.4 367.40000000000003 540.9 L 367.8 541.3 C 370.90000000000003 544.6999999999999 374.40000000000003 547.6999999999999 378.1 550.4 L 378.70000000000005 550.8 C 380.40000000000003 552 382.00000000000006 553 383.6 553.9 L 383.70000000000005 554 L 383.90000000000003 554.1 C 386.1 555.3000000000001 388.40000000000003 556.5 390.90000000000003 557.5 L 391.50000000000006 557.7 C 393.6000000000001 558.6 395.50000000000006 559.2 397.30000000000007 559.8000000000001 C 399.50000000000006 560.5000000000001 401.70000000000005 561.0000000000001 403.9000000000001 561.4000000000001 L 404.30000000000007 561.5000000000001 C 408.30000000000007 562.2000000000002 412.4000000000001 562.4000000000001 416.70000000000005 562.1000000000001 L 417.00000000000006 562.1000000000001 C 420.90000000000003 561.8000000000002 425.1000000000001 561.2000000000002 429.50000000000006 560.1000000000001 L 429.80000000000007 560.0000000000001 C 444.00000000000006 556.6000000000001 460.80000000000007 549.2000000000002 481.00000000000006 537.3000000000001 C 492.2 530.6 517 512.2 537.6 496.7 z M 782.1 496 C 782.1 489.9 781 483.9 778.8000000000001 478.3 C 773.4000000000001 464.2 761.5000000000001 453.1 747.0000000000001 448.8 C 735.9000000000001 445.5 719.6000000000001 445 682.3000000000001 466.8 C 676.6 470.1 664.1 479.1 643.0000000000001 494.90000000000003 C 670.5000000000001 513.9000000000001 708.1000000000001 539.4000000000001 720.6000000000001 543.1 C 724.7000000000002 544.3000000000001 728.9000000000001 544.9 733.1000000000001 544.9 C 743.2000000000002 544.9 753.1000000000001 541.5 761.9000000000001 534.9 C 774.7 525.4 782.1 511.2 782.1 496 z" stroke-linecap="round" />
</g>
</g>
</g>
<g transform="matrix(1.9211538461538462 0 0 1.9211538461538462 670.9881986912782 589.0980200204312)" id="text-logo"  >
<g style=""  paint-order="stroke"   >
		<g transform="matrix(1 0 0 1 0 0)" id="text-logo-path-0"  >
<path style="stroke: none; stroke-width: 0; stroke-dasharray: none; stroke-linecap: butt; stroke-dashoffset: 0; stroke-linejoin: miter; stroke-miterlimit: 4; fill: rgb(255,29,100); fill-rule: nonzero; opacity: 1;"  paint-order="stroke"  transform=" translate(-124.825, 20.8)" d="M 29.12 -42.47 L 19.99 -15.15 L 10.99 -42.47 L 0.12 -42.47 L 14.22 0 L 25.89 0 L 39.98 -42.47 Z M 80.28 -14.28 L 80.28 -42.47 L 69.97 -42.47 L 69.97 -14.28 C 69.97 -10.68 66.5 -9.44 63.39 -9.44 C 60.54 -9.44 56.87 -10.93 56.87 -14.28 L 56.87 -42.47 L 46.57 -42.47 L 46.57 -14.28 C 46.57 -4.84 54.58 0.87 63.39 0.87 C 72.27 0.87 80.28 -5.03 80.28 -14.28 Z M 105.24 -13.66 L 112.88 0 L 124.67 0 L 115.79 -16.02 C 119.89 -18.69 122.25 -23.22 122.25 -28.06 C 122.25 -36.07 115.86 -42.47 107.91 -42.47 L 89.9 -42.47 L 89.9 0 L 100.27 0 L 100.27 -13.66 Z M 100.27 -23.47 L 100.27 -32.66 L 107.91 -32.66 C 110.52 -32.66 112.5 -30.67 112.5 -28.06 C 112.5 -25.58 110.39 -23.47 107.91 -23.47 Z M 159.82 -32.66 L 159.82 -42.47 L 128.09 -42.47 L 128.09 -32.66 L 138.83 -32.66 L 138.83 0 L 149.14 0 L 149.14 -32.66 Z M 200.79 -14.28 L 200.79 -42.47 L 190.49 -42.47 L 190.49 -14.28 C 190.49 -10.68 187.01 -9.44 183.91 -9.44 C 181.05 -9.44 177.39 -10.93 177.39 -14.28 L 177.39 -42.47 L 167.08 -42.47 L 167.08 -14.28 C 167.08 -4.84 175.09 0.87 183.91 0.87 C 192.78 0.87 200.79 -5.03 200.79 -14.28 Z M 249.53 -42.47 L 237.24 -42.47 L 228.55 -28.93 L 219.79 -42.47 L 207.44 -42.47 L 221.22 -21.11 L 207.62 0 L 219.98 0 L 228.55 -13.29 L 237.05 0 L 249.35 0 L 235.75 -21.11 Z" stroke-linecap="round" />
</g>
</g>
</g>
</svg>